<svg width="512" height="512" viewBox="0 0 512 512" fill="none" xmlns="http://www.w3.org/2000/svg">
<path d="M190.345 214.634C242.717 189.586 283.704 147.082 307.233 93.9507C292.053 78.0114 272.319 66.6262 251.066 59.7951L239.681 56C238.922 57.518 238.163 59.7952 238.163 61.3132C219.947 112.926 182.755 154.672 132.66 178.201C97.7458 194.9 71.9393 225.26 59.7951 261.693L56 273.078C57.518 273.837 59.7951 274.596 61.3131 274.596C75.7344 279.909 90.1556 286.74 103.818 295.089C122.793 260.934 153.154 232.091 190.345 214.634Z" fill="#B8864A"/>
<path d="M410.459 217.67C382.376 260.175 343.666 294.33 295.848 317.101C257.138 335.317 227.537 369.473 213.875 410.459L210.08 423.363C224.501 436.266 241.958 446.133 260.933 452.205L272.319 456C273.078 454.482 273.837 452.205 273.837 450.687C292.053 399.074 329.245 357.328 379.34 333.799C414.254 317.101 440.82 286.74 452.205 250.308L456 238.922C440.061 234.368 424.88 226.778 410.459 217.67Z" fill="#B8864A"/>
<path d="M179.719 383.894C198.695 338.353 233.609 301.161 278.391 279.909C319.378 260.175 353.533 229.814 377.063 192.622C359.605 175.924 345.184 156.949 334.558 134.178C306.474 185.791 262.452 227.537 208.562 253.344C177.442 267.765 152.395 292.812 137.215 323.173C153.913 339.112 167.575 358.846 178.201 380.858C178.201 380.858 178.96 382.376 179.719 383.894Z" fill="#B8864A"/>
</svg>
