<svg width="800" height="200" viewBox="0 0 800 200" fill="none" xmlns="http://www.w3.org/2000/svg">
<path d="M120.304 87.5901C136.015 80.0759 148.311 67.3245 155.37 51.3852C150.816 46.6034 144.896 43.1879 138.52 41.1385L135.104 40C134.877 40.4554 134.649 41.1385 134.649 41.594C129.184 57.0778 118.027 69.6015 102.998 76.6604C92.5237 81.6698 84.7818 90.778 81.1385 101.708L80 105.123C80.4554 105.351 81.1385 105.579 81.5939 105.579C85.9203 107.173 90.2467 109.222 94.3454 111.727C100.038 101.48 109.146 92.8273 120.304 87.5901Z" fill="#B8864A"/>
<path d="M186.338 88.5009C177.913 101.252 166.3 111.499 151.954 118.33C140.342 123.795 131.461 134.042 127.362 146.338L126.224 150.209C130.55 154.08 135.787 157.04 141.48 158.862L144.896 160C145.123 159.545 145.351 158.861 145.351 158.406C150.816 142.922 161.973 130.398 177.002 123.34C187.476 118.33 195.446 109.222 198.861 98.2922L200 94.8767C195.218 93.5104 190.664 91.2334 186.338 88.5009Z" fill="#B8864A"/>
<path d="M117.116 138.368C122.808 124.706 133.283 113.548 146.717 107.173C159.013 101.252 169.26 92.1442 176.319 80.9867C171.082 75.9772 166.755 70.2846 163.567 63.4535C155.142 78.9374 141.935 91.4611 125.769 99.203C116.433 103.529 108.918 111.044 104.364 120.152C109.374 124.934 113.473 130.854 116.66 137.457C116.66 137.457 116.888 137.913 117.116 138.368Z" fill="#B8864A"/>
<path d="M229.872 130V62.992H243.888L253.968 82L261.168 95.728H261.456L268.56 82L278.544 62.992H292.56V130H280.56V92.944V82.384H280.272L275.088 92.56L261.168 117.904L247.44 92.656L242.16 81.904H241.872V92.944V130H229.872ZM313.717 72.592C311.221 72.592 309.397 72.016 308.245 70.864C307.093 69.648 306.517 68.176 306.517 66.448V64.528C306.517 62.736 307.093 61.264 308.245 60.112C309.397 58.96 311.221 58.384 313.717 58.384C316.213 58.384 318.037 58.96 319.189 60.112C320.341 61.264 320.917 62.736 320.917 64.528V66.448C320.917 68.176 320.341 69.648 319.189 70.864C318.037 72.016 316.213 72.592 313.717 72.592ZM307.573 130V79.888H319.861V130H307.573ZM346.298 130H334.01V79.888H346.298V90.256H346.778C347.226 88.464 347.962 86.8 348.986 85.264C350.074 83.664 351.514 82.384 353.306 81.424C355.162 80.4 357.402 79.888 360.026 79.888H362.714V91.504H358.874C356.122 91.504 353.786 91.792 351.866 92.368C350.01 92.88 348.602 93.712 347.642 94.864C346.746 95.952 346.298 97.424 346.298 99.28V130ZM383.986 130H371.698V79.888H383.986V90.256H384.466C384.914 88.464 385.65 86.8 386.674 85.264C387.762 83.664 389.202 82.384 390.994 81.424C392.85 80.4 395.09 79.888 397.714 79.888H400.402V91.504H396.562C393.81 91.504 391.474 91.792 389.554 92.368C387.698 92.88 386.29 93.712 385.33 94.864C384.434 95.952 383.986 97.424 383.986 99.28V130ZM452.034 130H445.218C443.362 130 441.698 129.584 440.226 128.752C438.818 127.856 437.698 126.576 436.866 124.912C436.098 123.248 435.714 121.296 435.714 119.056V118L438.786 121.36H435.33C434.498 124.56 432.77 126.992 430.146 128.656C427.586 130.32 424.45 131.152 420.738 131.152C415.618 131.152 411.682 129.808 408.93 127.12C406.178 124.368 404.802 120.784 404.802 116.368C404.802 112.912 405.634 110.064 407.298 107.824C409.026 105.584 411.49 103.888 414.69 102.736C417.89 101.584 421.73 101.008 426.21 101.008H434.754V97.36C434.754 94.608 434.018 92.464 432.546 90.928C431.074 89.328 428.706 88.528 425.442 88.528C422.562 88.528 420.226 89.168 418.434 90.448C416.706 91.664 415.234 93.136 414.018 94.864L406.722 88.336C408.578 85.456 411.042 83.152 414.114 81.424C417.186 79.632 421.25 78.736 426.306 78.736C433.026 78.736 438.146 80.304 441.666 83.44C445.25 86.512 447.042 90.896 447.042 96.592V120.208H452.034V130ZM434.754 108.4H426.882C423.682 108.4 421.282 108.944 419.682 110.032C418.082 111.056 417.282 112.56 417.282 114.544V116.176C417.282 118.16 417.954 119.664 419.298 120.688C420.642 121.712 422.498 122.224 424.866 122.224C426.722 122.224 428.386 121.968 429.858 121.456C431.33 120.88 432.514 120.048 433.41 118.96C434.306 117.872 434.754 116.56 434.754 115.024V108.4Z" fill="#1A1915"/>
</svg>
